# xmcd
#
# Track frame offsets: 
#        150
#        4655
#        28115
#        45315
#        73970
#        93203
#        106243
#        131533
#        154890
#        169273
#        190448
#        206298
#
# Disc length: 2834 seconds
#
# Revision: 0
# Processed by: cddbd v1.5.2PL0 Copyright (c) Steve Scherf et al.
# Submitted via: ExactAudioCopy v1.0b3
#
DISCID=9b0b100c
DTITLE=Various Artist - Vuon Dau Xanh
DYEAR=1991
DGENRE=
TTITLE0=Hoang Hoa - Loi gioi thieu
TTITLE1=Khanh Ly - Xin cam on
TTITLE2=Huong Lan - Bay gio
TTITLE3=Thien Trang - Khuc tinh ca xu Hue
TTITLE4=Duy Khanh - Bo truong ma di
TTITLE5=Nhu Mai, Thien Co - Ta lai ve tren dong lang ta
TTITLE6=Khanh Ly - Thao thuc
TTITLE7=Huong Lan - Tren hoang tan do nat
TTITLE8=Xuan Son - Em van cho mua Xuan
TTITLE9=Duy Khanh - Nhung ngay mua ha tro ve
TTITLE10=Nhu Mai, Thien Co - Ngay ay dat nuoc hoi sinh
TTITLE11=Hoang Hoa - Loi cam ta
EXTD=
EXTT0=
EXTT1=
EXTT2=
EXTT3=
EXTT4=
EXTT5=
EXTT6=
EXTT7=
EXTT8=
EXTT9=
EXTT10=
EXTT11=
PLAYORDER=
